<?xml version="1.0" encoding="UTF-8"?>
<svg version="1.1" xmlns="http://www.w3.org/2000/svg" width="512" height="512">
<path d="M0 0 C1.52343018 0.32145996 1.52343018 0.32145996 3.07763672 0.64941406 C45.23559576 9.75569228 86.14741599 29.73954995 117.51171875 59.62890625 C119.61809341 61.63607959 121.76611653 63.51418872 124 65.375 C161.03887429 97.7553767 185.00775076 147.64575416 195 195 C195.31759277 196.45962158 195.31759277 196.45962158 195.64160156 197.94873047 C202.10446221 228.9264199 201.7201655 264.11485583 195 295 C194.67854004 296.52343018 194.67854004 296.52343018 194.35058594 298.07763672 C185.24430772 340.23559576 165.26045005 381.14741599 135.37109375 412.51171875 C133.36392041 414.61809341 131.48581128 416.76611653 129.625 419 C97.2446233 456.03887429 47.35424584 480.00775076 0 490 C-1.45962158 490.31759277 -1.45962158 490.31759277 -2.94873047 490.64160156 C-33.9264199 497.10446221 -69.11485583 496.7201655 -100 490 C-101.52343018 489.67854004 -101.52343018 489.67854004 -103.07763672 489.35058594 C-145.23559576 480.24430772 -186.14741599 460.26045005 -217.51171875 430.37109375 C-219.61809341 428.36392041 -221.76611653 426.48581128 -224 424.625 C-261.03887429 392.2446233 -285.00775076 342.35424584 -295 295 C-295.21172852 294.02691895 -295.42345703 293.05383789 -295.64160156 292.05126953 C-302.10446221 261.0735801 -301.7201655 225.88514417 -295 195 C-294.67854004 193.47656982 -294.67854004 193.47656982 -294.35058594 191.92236328 C-285.24430772 149.76440424 -265.26045005 108.85258401 -235.37109375 77.48828125 C-233.36392041 75.38190659 -231.48581128 73.23388347 -229.625 71 C-197.2446233 33.96112571 -147.35424584 9.99224924 -100 0 C-99.02691895 -0.21172852 -98.05383789 -0.42345703 -97.05126953 -0.64160156 C-66.0735801 -7.10446221 -30.88514417 -6.7201655 0 0 Z " fill="#FCFDFC" transform="translate(306,9)"/>
<path d="M0 0 C3.24015904 2.74435884 6.29841024 5.65564949 9.3046875 8.65185547 C10.55958984 9.89902344 10.55958984 9.89902344 11.83984375 11.17138672 C12.65324219 11.98994141 13.46664062 12.80849609 14.3046875 13.65185547 C15.01109375 14.36083984 15.7175 15.06982422 16.4453125 15.80029297 C37.8464284 38.39035975 45.17553539 68.43055449 44.40087891 98.75146484 C43.6356714 121.82421894 36.98066538 143.7919551 27.3046875 164.65185547 C26.7470874 164.69149414 26.1894873 164.73113281 25.61499023 164.77197266 C0.88382712 166.61124971 -22.85627564 172.08872486 -40.6953125 190.65185547 C-60.04039629 213.15982368 -64.27184984 242.05240403 -65.40527344 270.73974609 C-65.60180241 275.55834538 -65.60180241 275.55834538 -66.6953125 276.65185547 C-68.93725603 277.05387937 -71.18962032 277.39846497 -73.4453125 277.71435547 C-74.67765625 277.89095703 -75.91 278.06755859 -77.1796875 278.24951172 C-80.07630149 278.5810131 -82.78980948 278.68389688 -85.6953125 278.65185547 C-85.77048096 277.39864502 -85.77048096 277.39864502 -85.84716797 276.12011719 C-86.04022336 272.94761736 -86.23846293 269.77549082 -86.43994141 266.60351562 C-86.56668038 264.58471097 -86.6877213 262.56555112 -86.80859375 260.54638672 C-88.3531283 236.4278856 -92.80087321 214.24772255 -107.6953125 194.65185547 C-108.43974609 193.66185547 -108.43974609 193.66185547 -109.19921875 192.65185547 C-122.98438765 175.64461094 -144.55500601 168.02857632 -165.6953125 165.65185547 C-170.02546837 165.25488649 -174.35544838 164.92176519 -178.6953125 164.65185547 C-194.97771792 128.86362426 -202.71907034 88.35140964 -189.0078125 50.40185547 C-180.35629831 28.12553507 -164.27182349 7.128111 -143.6953125 -5.34814453 C-142.68597656 -5.99009766 -141.67664063 -6.63205078 -140.63671875 -7.29345703 C-98.59427968 -32.8591483 -38.96518745 -30.98585326 0 0 Z " fill="#0074FE" transform="translate(331.6953125,128.34814453125)"/>
<path d="M0 0 C0.88771088 0.10422272 1.77542175 0.20844543 2.69003296 0.31582642 C3.7624826 0.43935989 4.83493225 0.56289337 5.93988037 0.69017029 C14.10953628 1.83955254 22.25961087 3.08686581 30.40634155 4.38858032 C32.38453256 4.70141502 34.36278478 5.01386285 36.34109497 5.32594299 C41.51024888 6.14243331 46.67856236 6.96412574 51.84671021 7.78695679 C57.1356147 8.62805161 62.42530855 9.46415142 67.7149353 10.3006897 C78.06596806 11.93841922 88.41611861 13.58165336 98.76571655 15.22842407 C98.76571655 19.53017546 96.15658402 21.403134 93.39071655 24.41592407 C69.03566188 51.97236189 59.01638241 86.673144 60.55429077 123.00967407 C62.32683684 149.99494814 70.21536887 176.72275916 82.5664978 200.72842407 C83.76571655 203.22842407 83.76571655 203.22842407 83.76571655 206.22842407 C84.42466919 206.21795044 85.08362183 206.20747681 85.76254272 206.19668579 C109.10817334 205.87462086 130.7128785 206.63276577 148.76571655 223.22842407 C166.89834314 241.67314406 169.95136167 267.65636598 169.81259155 292.29873657 C169.80920776 293.44994995 169.80582397 294.60116333 169.80233765 295.78726196 C169.79357661 298.601014 169.78129176 301.4147029 169.76571655 304.22842407 C151.59907192 307.10153547 133.43173998 309.97025822 115.26357746 312.83375549 C106.82784333 314.16342256 98.39234049 315.49452581 89.95736694 316.82901001 C82.60562064 317.99211476 75.25345498 319.15252501 67.90077275 320.30969906 C64.00746504 320.92252902 60.11438095 321.53670792 56.22179604 322.15411377 C52.557534 322.73526154 48.89272173 323.3128032 45.22745705 323.88759232 C43.24203048 324.19990694 41.25720494 324.5160349 39.2723999 324.83227539 C37.49511757 325.10994247 37.49511757 325.10994247 35.68193054 325.39321899 C34.14023178 325.63657234 34.14023178 325.63657234 32.56738758 325.88484192 C25.50672929 326.7507238 25.50672929 326.7507238 22.99227905 324.97842407 C22.46376343 324.40092407 21.9352478 323.82342407 21.39071655 323.22842407 C20.78872437 322.57873657 20.18673218 321.92904907 19.5664978 321.25967407 C18.97223999 320.58936157 18.37798218 319.91904907 17.76571655 319.22842407 C17.24364624 318.66123657 16.72157593 318.09404907 16.1836853 317.50967407 C14.33001934 315.45305198 12.54424921 313.3505369 10.76571655 311.22842407 C10.34161499 310.72343384 9.91751343 310.2184436 9.4805603 309.69815063 C-17.77785781 277.02980971 -36.44770963 238.86885622 -45.23428345 197.22842407 C-45.44601196 196.25534302 -45.65774048 195.28226196 -45.87588501 194.2796936 C-52.33874566 163.30200417 -51.95444895 128.11356825 -45.23428345 97.22842407 C-45.01997681 96.21280396 -44.80567017 95.19718384 -44.58486938 94.15078735 C-38.18589288 64.52641357 -26.59870594 35.32704653 -9.52041626 10.17715454 C-8.17785282 8.20821008 -8.17785282 8.20821008 -7.00283813 5.92422485 C-3.70973181 0.37926793 -3.70973181 0.37926793 0 0 Z " fill="#00AC00" transform="translate(56.234283447265625,106.77157592773438)"/>
<path d="M0 0 C6.66513738 0.60441617 13.25891472 1.42888189 19.8684082 2.47460938 C20.79817978 2.61945267 21.72795135 2.76429596 22.68589783 2.91352844 C25.72461462 3.38761118 28.76270157 3.86560292 31.80078125 4.34375 C33.92682166 4.67643844 36.05289542 5.00891386 38.17900085 5.34118652 C42.61805333 6.03550778 47.05681767 6.73163286 51.49536133 7.42919922 C57.18213999 8.32290146 62.86943675 9.21325245 68.55692768 10.10240936 C72.93993772 10.78779973 77.32276418 11.4743577 81.70552635 12.16133118 C83.80304686 12.49007815 85.90060242 12.81860154 87.99819374 13.14689636 C90.92515745 13.60529756 93.85189333 14.0651256 96.77856445 14.52539062 C97.64254852 14.66048538 98.50653259 14.79558014 99.396698 14.93476868 C103.28284263 15.54738712 107.150066 16.18377209 111 17 C114.18273058 26.20960338 116.68416177 35.46159352 118.6875 45 C118.88947998 45.94681641 119.09145996 46.89363281 119.29956055 47.86914062 C122.5327767 63.73273755 123.40764341 79.16719983 123.375 95.3125 C123.37445618 96.3261261 123.37391235 97.3397522 123.37335205 98.38409424 C123.3334652 114.58485744 122.45528391 130.11989379 119 146 C118.78569336 147.01562012 118.57138672 148.03124023 118.35058594 149.07763672 C114.25235454 168.05059882 107.89134982 186.06346955 99.9375 203.75 C99.55045898 204.65000732 99.16341797 205.55001465 98.76464844 206.47729492 C98.37696289 207.30463135 97.98927734 208.13196777 97.58984375 208.984375 C97.25847412 209.71366211 96.92710449 210.44294922 96.58569336 211.19433594 C92.91020259 215.37969848 85.66505319 215.49445777 80.35163879 216.30349731 C79.61344066 216.41954563 78.87524252 216.53559395 78.11467475 216.65515888 C75.65887526 217.04011266 73.20214455 217.41874266 70.74536133 217.79736328 C68.97738424 218.07314411 67.20946681 218.3493076 65.44160461 218.62582397 C60.65327905 219.37358842 55.8641054 220.11578244 51.07473207 220.85680246 C46.06066714 221.63338173 41.04731435 222.4145332 36.03385925 223.19503784 C27.6188358 224.50437713 19.20326679 225.81016263 10.78735352 227.11376953 C1.05440122 228.62142108 -8.67771487 230.13437819 -18.40939158 231.65024006 C-27.77258517 233.1086068 -37.13631004 234.56353335 -46.50029945 236.01678085 C-50.48562428 236.63532828 -54.4707671 237.25502992 -58.45577049 237.87564468 C-63.14453684 238.60568007 -67.83376264 239.33268918 -72.52336311 240.05734634 C-74.24567657 240.32397584 -75.96783019 240.59164007 -77.68981171 240.86040497 C-80.03697975 241.22657001 -82.38469456 241.58900122 -84.73258972 241.95046997 C-85.41653421 242.05805228 -86.1004787 242.1656346 -86.80514878 242.27647698 C-89.93687155 242.75469167 -92.81674848 243 -96 243 C-96.50170281 227.22423397 -94.76981193 212.07189643 -90 197 C-89.72542969 196.11054688 -89.45085937 195.22109375 -89.16796875 194.3046875 C-85.42680511 183.67909945 -78.1583365 173.56145469 -69 167 C-68.28714844 166.48050781 -67.57429688 165.96101562 -66.83984375 165.42578125 C-56.38954125 158.49962083 -42.97155703 154.84299259 -30.5078125 154.90234375 C-29.30898438 154.90556641 -28.11015625 154.90878906 -26.875 154.91210938 C-25.6375 154.92048828 -24.4 154.92886719 -23.125 154.9375 C-21.86429687 154.94201172 -20.60359375 154.94652344 -19.3046875 154.95117188 C-16.20307614 154.9629204 -13.10156275 154.97934833 -10 155 C-9.82114258 154.43442383 -9.64228516 153.86884766 -9.45800781 153.28613281 C-7.83752999 148.27795491 -5.96552687 143.53305334 -3.75 138.75 C3.26365767 123.07894689 8.0144538 106.88565766 11 90 C11.33837891 88.23269531 11.33837891 88.23269531 11.68359375 86.4296875 C16.28202242 58.58540905 12.16491186 32.06062393 1.78442383 6.12451172 C1.03590093 4.09723308 0.50675786 2.09818844 0 0 Z " fill="#00AC00" transform="translate(382,158)"/>
<path d="M0 0 C1.52343018 0.32145996 1.52343018 0.32145996 3.07763672 0.64941406 C45.23559576 9.75569228 86.14741599 29.73954995 117.51171875 59.62890625 C119.61809341 61.63607959 121.76611653 63.51418872 124 65.375 C146.97397357 85.45946349 165.72595949 114.17884152 178 142 C178 142.66 178 143.32 178 144 C168.62455785 143.4363896 159.45399069 142.25978697 150.1875 140.75 C148.78849976 140.52614019 147.38940892 140.30284589 145.99023438 140.08007812 C143.09518802 139.61870437 140.20053892 139.15494728 137.30615234 138.68945312 C131.19870031 137.70912816 125.0865968 136.75880684 118.97454834 135.80764771 C116.34122886 135.3973591 113.70825959 134.98483731 111.07525635 134.57252502 C105.52152349 133.70311631 99.96695798 132.83951345 94.41079712 131.98574829 C91.49571893 131.53757381 88.58097817 131.08722642 85.66625977 130.63671875 C84.28524133 130.42388453 82.9040608 130.21209886 81.52270508 130.00146484 C77.3432338 129.36401438 73.17143295 128.68776656 69 128 C68.1138501 127.88052002 67.2277002 127.76104004 66.31469727 127.63793945 C60.26746593 126.65479868 57.59690315 124.25322046 53.8125 119.5625 C31.12970111 93.42884825 -2.82694503 79.02973941 -36.85009766 76.2109375 C-62.71858349 74.47861912 -92.96133293 76.31506561 -115.30078125 91.19921875 C-124.97876902 97.58968179 -131.98433977 97.36353144 -143.2109375 95.19921875 C-144.16967773 94.99989746 -145.12841797 94.80057617 -146.11621094 94.59521484 C-149.83669948 93.827305 -153.57351649 93.18479648 -157.31762695 92.54394531 C-159.20528429 92.22022497 -161.09184254 91.89003575 -162.97729492 91.55371094 C-171.73945106 89.99618984 -180.5353507 88.73940584 -189.34790039 87.50463867 C-197.59468619 86.3481223 -205.83154366 85.13938137 -214.0625 83.875 C-215.62158081 83.63716797 -215.62158081 83.63716797 -217.2121582 83.39453125 C-223.8296256 82.37274405 -230.41830454 81.23108523 -237 80 C-230.51356533 70.80508472 -222.62372727 63.18643939 -214 56 C-213.49791016 55.57879883 -212.99582031 55.15759766 -212.47851562 54.72363281 C-179.80809563 27.46033808 -141.64530211 8.78760143 -100 0 C-99.02691895 -0.21172852 -98.05383789 -0.42345703 -97.05126953 -0.64160156 C-66.0735801 -7.10446221 -30.88514417 -6.7201655 0 0 Z " fill="#FFBA00" transform="translate(306,9)"/>
<path d="M0 0 C-1.49528578 4.53683299 -4.04228973 7.94869826 -7 11.625 C-7.73041504 12.54369873 -7.73041504 12.54369873 -8.47558594 13.48095703 C-12.38560504 18.34886755 -16.49326974 22.98630878 -20.74609375 27.55859375 C-22.66812095 29.64051229 -24.49625955 31.76425897 -26.3125 33.9375 C-58.77114853 70.99006399 -108.56713433 94.99116114 -156 105 C-157.45962158 105.31759277 -157.45962158 105.31759277 -158.94873047 105.64160156 C-189.9264199 112.10446221 -225.11485583 111.7201655 -256 105 C-257.52343018 104.67854004 -257.52343018 104.67854004 -259.07763672 104.35058594 C-295.67552421 96.44530416 -330.69770118 80.42455157 -360 57 C-360 56.67 -360 56.34 -360 56 C-330.48332805 51.32741043 -300.9640302 46.67241133 -271.4375 42.0625 C-270.44491684 41.90752926 -270.44491684 41.90752926 -269.43228149 41.7494278 C-263.34779103 40.7995124 -257.26325731 39.84987428 -251.17868042 38.9005127 C-241.77649523 37.43350583 -232.37449893 35.96529411 -222.97265625 34.49609375 C-222.31347136 34.39308519 -221.65428646 34.29007664 -220.97512627 34.18394661 C-217.64773159 33.66397953 -214.32034026 33.14399104 -210.99295044 32.62399292 C-204.99546615 31.68672804 -198.99795217 30.74965322 -193.0004406 29.81256294 C-189.6669592 29.29171631 -186.33347969 28.77085754 -183 28.25 C-181.66666668 28.04166661 -180.33333334 27.83333328 -179 27.625 C-178.34 27.521875 -177.68 27.41875 -177 27.3125 C-175 27 -173 26.6875 -171 26.375 C-170.00999103 26.22031108 -170.00999103 26.22031108 -168.99998188 26.06249714 C-167.66670896 25.85417326 -166.33343602 25.64584947 -165.00016308 25.43752575 C-161.66590535 24.91654833 -158.33164783 24.39556955 -154.99739075 23.87458801 C-149.00842934 22.93880717 -143.01946649 22.00303552 -137.03049564 21.0673151 C-133.71173562 20.54878973 -130.39297686 20.03025635 -127.07421875 19.51171875 C-126.41652685 19.40895819 -125.75883495 19.30619762 -125.081213 19.2003231 C-114.1364063 17.4902412 -103.19170192 15.7795052 -92.24702454 14.06859589 C-80.88103388 12.29184974 -69.51485844 10.51628958 -58.14855957 8.74151611 C-50.90307902 7.61006123 -43.65783942 6.47708163 -36.41282654 5.34263611 C-32.13883472 4.67366769 -27.86465575 4.00590132 -23.59042358 3.33847046 C-21.63202621 3.03238962 -19.67371145 2.72577964 -17.71548462 2.41860962 C-15.07355766 2.00425354 -12.43135106 1.5917304 -9.7890625 1.1796875 C-9.01851028 1.05835953 -8.24795807 0.93703156 -7.45405579 0.81202698 C-2.22819679 0 -2.22819679 0 0 0 Z " fill="#3BD800" transform="translate(462,394)"/>
</svg>
