<?xml version="1.0" encoding="UTF-8"?>
<svg version="1.1" xmlns="http://www.w3.org/2000/svg" width="2560" height="723">
<path d="M0 0 C4.7718464 0.00249662 9.54367429 -0.00658289 14.31551361 -0.01403749 C23.63399347 -0.02670641 32.95244441 -0.02858798 42.27093144 -0.02623723 C49.85594896 -0.02444496 57.44095779 -0.02622305 65.02597427 -0.03046167 C66.65314196 -0.03135445 66.65314196 -0.03135445 68.31318172 -0.03226527 C70.51783523 -0.03347719 72.72248874 -0.03469132 74.92714225 -0.03590765 C95.545643 -0.0467533 116.16412734 -0.04463495 136.782629 -0.0385228 C155.58242134 -0.03335737 174.38216182 -0.04460458 193.18194391 -0.06362102 C212.55461956 -0.08306446 231.92727075 -0.091244 251.2999562 -0.08749777 C262.14850884 -0.08559543 272.99701738 -0.08797805 283.84556198 -0.10221231 C293.08221578 -0.11421049 302.31879832 -0.11543764 311.55545326 -0.10342214 C316.25382029 -0.09759175 320.95205755 -0.09626871 325.65041542 -0.10842454 C382.78158721 -0.2458506 435.56282753 7.19887196 477.95877838 48.76048338 C512.28653144 83.47077165 521.55658113 129.82245256 522.90381622 176.90208495 C522.92525605 177.63673429 522.94669587 178.37138362 522.96878539 179.12829506 C523.42399696 195.01700816 523.50565463 210.8979879 523.4918468 226.7922045 C523.4895251 230.77320949 523.49310492 234.75421068 523.49582672 238.73521483 C523.50021305 246.48104567 523.49934033 254.22686667 523.49641408 261.97269785 C523.49413147 268.28261642 523.49385971 274.59253229 523.4949379 280.90245116 C523.49516775 282.2629462 523.49516775 282.2629462 523.49540224 283.65092599 C523.49572205 285.49496297 523.49604626 287.33899995 523.49637483 289.18303692 C523.49920871 306.36953575 523.49597571 323.55602919 523.49057446 340.74252713 C523.48610835 355.40606732 523.48688487 370.06959959 523.49149323 384.73313963 C523.49687627 401.86907769 523.49893421 419.00501106 523.49588096 436.14094985 C523.4955625 437.97722177 523.49524813 439.81349369 523.4949379 441.64976561 C523.49478362 442.55263643 523.49462935 443.45550724 523.4944704 444.38573778 C523.49361637 450.66897934 523.49504375 456.95221787 523.49741745 463.23545897 C523.50025744 470.91993673 523.49939056 478.60440431 523.49413671 486.28888094 C523.49155519 490.18994831 523.49039687 494.09099888 523.49378586 497.99206603 C523.50641027 513.89100245 523.36670224 529.77293773 522.89990997 545.66575682 C522.86918007 546.72723677 522.86918007 546.72723677 522.83782937 547.81016076 C521.34888189 598.08868154 509.41802591 644.21857923 471.81131744 679.73997557 C432.55344564 715.67132366 382.52057361 722.26184615 331.28275299 722.90208495 C329.30855589 722.93055672 327.33435882 722.95903147 325.36016421 722.98767515 C291.88258801 723.46434999 258.40150758 723.36387272 224.92165112 723.27436793 C219.53615631 723.26005115 214.15065801 723.24766544 208.7651577 723.23561919 C193.72744356 723.20172917 178.68973665 723.16612724 163.65204716 723.12252486 C162.70402184 723.11977681 161.75599652 723.11702877 160.77924317 723.11419745 C158.85951801 723.10862429 156.93979285 723.10304951 155.0200677 723.09747311 C153.59162036 723.09332677 153.59162036 723.09332677 152.13431549 723.08909667 C151.18080568 723.08632748 150.22729586 723.0835583 149.24489181 723.0807052 C133.70735355 723.0359425 118.16982039 723.00499644 102.63223911 722.97989687 C86.51841054 722.95368194 70.40463839 722.91638598 54.29086059 722.86807716 C45.30683302 722.84138126 36.32284826 722.81907747 27.33878517 722.80905974 C19.71957354 722.80050353 12.10047008 722.78157949 4.48131794 722.74995592 C0.61495929 722.73419392 -3.25126104 722.72272718 -7.1176548 722.72455847 C-53.7116782 722.73662261 -102.38397841 718.40112367 -139.63887787 687.27610838 C-140.7122693 686.41439973 -141.78652455 685.55376626 -142.86153412 684.69407713 C-176.38288446 657.5264147 -193.76191884 617.95511685 -198.45800996 575.63594741 C-200.15809043 558.6275024 -199.9244135 541.56877541 -199.90032721 524.49625587 C-199.89575154 519.6870178 -199.90281152 514.87779355 -199.90828705 510.06855834 C-199.91712897 500.67641921 -199.91528234 491.28431225 -199.90946177 481.89217193 C-199.90492438 474.25082474 -199.9043413 466.60948649 -199.9065094 458.96813834 C-199.90681587 457.87594133 -199.90712233 456.78374432 -199.90743808 455.65845044 C-199.90807761 453.438887 -199.90872604 451.21932357 -199.90938327 448.99976014 C-199.9150714 428.24028358 -199.90855271 407.48082474 -199.89778253 386.72135108 C-199.88884967 368.95403149 -199.89039985 351.18673805 -199.89962006 333.41941893 C-199.91035176 312.73010145 -199.9145209 292.04079947 -199.90839553 271.35147959 C-199.90775851 269.14028446 -199.90712976 266.92908933 -199.9065094 264.7178942 C-199.90620085 263.63026853 -199.9058923 262.54264286 -199.9055744 261.42205884 C-199.90385604 253.80078384 -199.90674392 246.17951876 -199.91146851 238.5582453 C-199.91710974 229.25479857 -199.91549337 219.95138554 -199.90490702 210.64794261 C-199.8996934 205.91187335 -199.89751885 201.17586002 -199.90420532 196.43979132 C-199.96577039 148.86572922 -199.96577039 148.86572922 -195.38887787 127.46360838 C-195.1727182 126.42720213 -194.95655853 125.39079588 -194.73384857 124.32298338 C-186.25485891 85.19569563 -163.85821398 50.09359198 -130.08028412 28.03782713 C-89.72224431 2.55473713 -46.37396091 -0.04557673 0 0 Z " fill="#FDFEFD" transform="translate(199.63887786865234,-0.27610838413238525)"/>
<path d="M0 0 C33.33 0 66.66 0 101 0 C101.33 92.73 101.66 185.46 102 281 C107.28 272.75 112.56 264.5 118 256 C123.3125 248 123.3125 248 125.6640625 244.5 C128.68080662 239.99906869 131.61162622 235.44309903 134.54858398 230.88989258 C138.47158586 224.80988568 142.41993741 218.74669415 146.375 212.6875 C151.13109845 205.39978439 155.88332207 198.10960776 160.625 190.8125 C161.15480469 189.99716797 161.68460938 189.18183594 162.23046875 188.34179688 C163.82045215 185.89462194 165.41026185 183.44733426 167 181 C174.46026997 169.51523174 181.93008519 158.0367934 189.41357422 146.56713867 C193.44845044 140.38202306 197.47708947 134.19290414 201.5 128 C206.79486045 119.84904487 212.10282192 111.70669539 217.4140625 103.56640625 C221.44876277 97.3815262 225.47724931 91.19265808 229.5 85 C234.15880604 77.82819267 238.82679864 70.6624353 243.5 63.5 C248.21409707 56.27457047 252.92394815 49.04642463 257.625 41.8125 C258.14989014 41.00490234 258.67478027 40.19730469 259.21557617 39.36523438 C261.95156723 35.15485047 264.68566882 30.94324893 267.41796875 26.73046875 C267.98628418 25.85479248 268.55459961 24.97911621 269.14013672 24.0769043 C270.20619276 22.43424422 271.27168279 20.79121656 272.33642578 19.14770508 C276.50418675 12.72733937 280.7529465 6.37058025 285 0 C318.33 0 351.66 0 386 0 C386 147.18 386 294.36 386 446 C352.67 446 319.34 446 285 446 C284.505 307.4 284.505 307.4 284 166 C275.585 178.87 275.585 178.87 267 192 C264.195 196.29 261.39 200.58 258.5 205 C257.10007812 207.14113281 255.70015625 209.28226563 254.2578125 211.48828125 C251.39880595 215.86091816 248.53939003 220.23328699 245.6796875 224.60546875 C238.94699552 234.89965722 232.21740193 245.19582617 225.5 255.5 C218.06323707 266.90763926 210.61122942 278.30528062 203.15722656 289.70166016 C199.60424739 295.1340672 196.05215395 300.56705334 192.5 306 C188.22701073 312.53544951 183.95382311 319.07076886 179.6796875 325.60546875 C172.94699552 335.89965722 166.21740193 346.19582617 159.5 356.5 C152.06323707 367.90763926 144.61122942 379.30528062 137.15722656 390.70166016 C133.60424737 396.13406723 130.05217606 401.56706774 126.5 407 C113.75 426.5 113.75 426.5 101 446 C67.67 446 34.34 446 0 446 C0 298.82 0 151.64 0 0 Z " fill="#252525" transform="translate(1673,138)"/>
<path d="M0 0 C1.26592987 0.00323273 1.26592987 0.00323273 2.55743408 0.00653076 C52.86056301 0.21133746 102.03209391 13.78541199 138.875 49.3125 C139.65359375 50.02792969 140.4321875 50.74335938 141.234375 51.48046875 C166.3216859 75.18886717 179.57859217 111.26988748 180.99951172 145.29394531 C181.68530635 172.88759522 178.60888924 198.58539516 165.875 223.3125 C165.39160156 224.28703125 164.90820312 225.2615625 164.41015625 226.265625 C158.60799723 237.51634887 150.55979981 247.17550541 141.875 256.3125 C141.38435059 256.83569824 140.89370117 257.35889648 140.38818359 257.89794922 C98.72874645 302.08220074 36.71576983 324.61467867 -17.9375 348.4375 C-18.76302368 348.79734985 -19.58854736 349.15719971 -20.43908691 349.5279541 C-22.81938932 350.56447789 -25.20049136 351.59913548 -27.58203125 352.6328125 C-28.2683815 352.9312204 -28.95473175 353.2296283 -29.66188049 353.53707886 C-35.79204863 356.19159544 -41.95652039 358.74230016 -48.125 361.3125 C31.075 361.6425 110.275 361.9725 191.875 362.3125 C191.875 392.3425 191.875 422.3725 191.875 453.3125 C64.495 453.3125 -62.885 453.3125 -194.125 453.3125 C-194.125 409.4225 -194.125 365.5325 -194.125 320.3125 C-185.13404035 316.94089013 -185.13404035 316.94089013 -180.90698242 315.52587891 C-179.48372147 315.04784317 -179.48372147 315.04784317 -178.03170776 314.56015015 C-177.02479889 314.22319122 -176.01789001 313.8862323 -174.98046875 313.5390625 C-172.77176491 312.79627409 -170.5631926 312.05309448 -168.35473633 311.30957031 C-167.20534576 310.92273071 -166.0559552 310.53589111 -164.87173462 310.1373291 C-119.0014532 294.67431404 -74.33589807 277.26904712 -30.24987793 257.27600098 C-28.18195388 256.33832507 -26.11297394 255.40300891 -24.04394531 254.46777344 C-10.5000519 248.33367249 2.88740938 241.95297267 16 234.9375 C17.02432129 234.39077637 18.04864258 233.84405273 19.10400391 233.28076172 C30.10068708 227.28734312 40.28141829 220.35720031 49.875 212.3125 C50.64714844 211.68730469 51.41929687 211.06210937 52.21484375 210.41796875 C65.85268977 198.97150312 74.23296161 183.04651462 75.875 165.3125 C77.07766256 146.37056468 70.16015089 129.04734804 58.125 114.6875 C45.97451531 101.48045143 27.02396521 93.76655621 9.22265625 92.40234375 C8.44792969 92.37269531 7.67320312 92.34304687 6.875 92.3125 C5.84246094 92.27253906 4.80992187 92.23257813 3.74609375 92.19140625 C-21.59575332 91.71005273 -46.54279035 98.44061946 -65.125 116.3125 C-83.06647218 134.65564693 -88.20265679 157.32203833 -90.125 182.3125 C-124.445 182.3125 -158.765 182.3125 -194.125 182.3125 C-194.125 157.77147522 -194.125 157.77147522 -193 150.4375 C-192.86875732 149.54442139 -192.73751465 148.65134277 -192.60229492 147.73120117 C-189.82351527 130.09952975 -184.79788461 113.41673827 -177.125 97.3125 C-176.78098145 96.58337402 -176.43696289 95.85424805 -176.08251953 95.10302734 C-156.87961142 55.04101626 -120.4751098 26.88128506 -79.125 12.3125 C-69.0959165 8.85487278 -58.97364402 6.10218677 -48.5625 4.0625 C-47.79752197 3.91135742 -47.03254395 3.76021484 -46.24438477 3.60449219 C-30.93667121 0.81411379 -15.53259784 -0.07225902 0 0 Z " fill="#252525" transform="translate(1069.125,130.6875)"/>
<path d="M0 0 C0.88492126 0.00182281 1.76984253 0.00364563 2.68157959 0.00552368 C67.96501813 0.23036624 127.36255439 21.40993929 173.76025391 67.88842773 C199.7523047 94.45690088 222.9375 137.4992953 222.9375 175.3125 C188.6175 175.3125 154.2975 175.3125 118.9375 175.3125 C115.9675 168.3825 112.9975 161.4525 109.9375 154.3125 C95.76531825 130.43334444 78.16611215 113.64699875 52.9375 102.3125 C51.87015625 101.82910156 50.8028125 101.34570312 49.703125 100.84765625 C37.35659679 95.69282404 23.31404991 92.76722691 9.9375 92.3125 C8.23207031 92.23515625 8.23207031 92.23515625 6.4921875 92.15625 C-28.85578989 91.29932934 -63.79627611 102.58186845 -89.6953125 126.98828125 C-111.55165646 148.44789289 -125.65526641 173.23003834 -132.0625 203.3125 C-132.29066406 204.37339844 -132.51882812 205.43429687 -132.75390625 206.52734375 C-138.09452465 236.74105207 -132.19686618 266.98606357 -119.0625 294.3125 C-118.27939453 295.95992188 -118.27939453 295.95992188 -117.48046875 297.640625 C-102.20670861 327.81652094 -74.78843412 351.00754648 -42.8125 361.75 C-10.13876798 372.18724461 26.55152757 370.81956366 57.5 355.375 C88.02351823 339.48171982 106.36373724 316.74690689 118.9375 285.3125 C153.2575 285.3125 187.5775 285.3125 222.9375 285.3125 C222.9375 290.15153251 222.91742415 293.2922942 221.87109375 297.76171875 C221.51942139 299.26605469 221.51942139 299.26605469 221.16064453 300.80078125 C220.90138184 301.85652344 220.64211914 302.91226562 220.375 304 C220.1054248 305.1034375 219.83584961 306.206875 219.55810547 307.34375 C210.71530789 342.53230077 193.87471993 372.1092366 168.9375 398.3125 C167.95910156 399.37017578 167.95910156 399.37017578 166.9609375 400.44921875 C160.90496457 406.8015478 153.9306854 412.04528343 146.9375 417.3125 C146.10347656 417.9415625 145.26945312 418.570625 144.41015625 419.21875 C111.7722677 442.87424529 72.61933829 454.72573817 32.9375 459.3125 C32.16720459 459.40821289 31.39690918 459.50392578 30.60327148 459.60253906 C20.89792196 460.66285919 11.12610081 460.55631993 1.375 460.5625 C-0.05954529 460.56351212 -0.05954529 460.56351212 -1.52307129 460.56454468 C-66.48123387 460.49188606 -128.34172182 439.02006672 -174.71533203 392.66015625 C-186.63642911 380.5396161 -196.67948876 367.11334324 -205.0625 352.3125 C-205.68874268 351.21156006 -205.68874268 351.21156006 -206.32763672 350.08837891 C-238.20025913 293.37875437 -244.25514028 223.78355728 -227.49609375 161.2890625 C-218.49597519 129.53222255 -203.12096359 99.92510148 -181.0625 75.3125 C-179.85400391 73.93964844 -179.85400391 73.93964844 -178.62109375 72.5390625 C-171.00076984 63.95169241 -163.11166462 56.3998783 -154.0625 49.3125 C-153.52657227 48.88952637 -152.99064453 48.46655273 -152.43847656 48.03076172 C-122.93706916 24.93189683 -87.57399029 10.91893079 -50.9375 4.0625 C-50.14110107 3.91143799 -49.34470215 3.76037598 -48.52416992 3.60473633 C-32.45909058 0.78878124 -16.28218088 -0.07045638 0 0 Z " fill="#252525" transform="translate(2337.0625,130.6875)"/>
<path d="M0 0 C6.99939073 0.0466626 13.899843 1.08200341 20.765625 2.35546875 C30.2384992 4.06850745 39.7394944 5.57517842 49.25 7.0625 C50.89325131 7.32082275 52.53648054 7.57928596 54.1796875 7.83789062 C58.09038439 8.45279087 62.00153237 9.06474289 65.9130249 9.67456055 C67.80686534 9.9698829 69.70056019 10.26613848 71.59423828 10.5625 C78.03265089 11.56331967 84.4778313 12.49736973 90.93139648 13.39501953 C102.02481375 14.9412555 113.0775235 16.61851844 124.10107422 18.60498047 C136.97777226 20.92517204 149.93004443 22.7200061 162.890625 24.5 C168.59130366 25.30009525 174.17699116 26.21457633 179.77832031 27.53564453 C184.22291546 28.46461376 188.74403592 28.90538208 193.25 29.4375 C201.66204255 30.47545 209.80717587 31.78274817 218 34 C215.10378521 37.40175207 212.20031193 40.79282556 209.2109375 44.11328125 C182.34277559 74.21296054 162.02516604 115.88854673 161.796875 156.84375 C161.78990601 157.68190247 161.78293701 158.52005493 161.77575684 159.38360596 C161.75838615 162.08912186 161.75203184 164.79443057 161.75 167.5 C161.74899292 168.42317017 161.74798584 169.34634033 161.74694824 170.29748535 C161.75738912 184.43013611 162.46577067 198.0726621 165 212 C165.28310313 213.74449194 165.56432933 215.48928944 165.84375 217.234375 C170.77207568 246.68425915 182.53448423 274.05160238 195 301 C196.22795288 301.01401855 196.22795288 301.01401855 197.48071289 301.02832031 C231.08858503 301.50766072 263.75759862 304.10059128 288.60400391 329.47900391 C315.60986197 358.90301505 316.61719748 402.4696456 316 440 C301.91363068 442.7417734 287.86103913 445.34791705 273.60131836 447.01098633 C269.53126343 447.49382317 265.56216424 448.04949311 261.5703125 448.98828125 C255.29848357 450.45899814 248.91574436 451.09154699 242.52734375 451.85546875 C238.13118007 452.39986718 233.81422123 452.98420753 229.5 454 C223.25336366 455.47078367 216.89127642 456.09447286 210.52734375 456.85546875 C206.13118007 457.39986718 201.81422123 457.98420753 197.5 459 C191.25336366 460.47078367 184.89127642 461.09447286 178.52734375 461.85546875 C174.13118007 462.39986718 169.81422123 462.98420753 165.5 464 C159.25336366 465.47078367 152.89127642 466.09447286 146.52734375 466.85546875 C142.13118007 467.39986718 137.81422123 467.98420753 133.5 469 C127.25336366 470.47078367 120.89127642 471.09447286 114.52734375 471.85546875 C110.13118007 472.39986718 105.81422123 472.98420753 101.5 474 C95.25336366 475.47078367 88.89127642 476.09447286 82.52734375 476.85546875 C78.13118007 477.39986718 73.81422123 477.98420753 69.5 479 C63.25336366 480.47078367 56.89127642 481.09447286 50.52734375 481.85546875 C45.29492322 482.50342495 40.20920944 483.3295354 35.07714844 484.53613281 C31.86684995 485.2530542 28.63422332 485.69272407 25.375 486.125 C24.14523438 486.29257812 22.91546875 486.46015625 21.6484375 486.6328125 C18.07058948 486.99289571 14.59309388 487.06465722 11 487 C-3.56031564 454.95537091 -3.3101145 419.7143193 -3.26144934 385.22014749 C-3.25687368 380.41090942 -3.26393365 375.60168516 -3.26940918 370.79244995 C-3.2782511 361.40031083 -3.27640447 352.00820387 -3.2705839 342.61606354 C-3.26604652 334.97471635 -3.26546343 327.33337811 -3.26763153 319.69202995 C-3.267938 318.59983295 -3.26824446 317.50763594 -3.26856022 316.38234205 C-3.26919974 314.16277862 -3.26984817 311.94321519 -3.2705054 309.72365176 C-3.27619353 288.96417519 -3.26967484 268.20471635 -3.25890467 247.4452427 C-3.2499718 229.67792311 -3.25152198 211.91062966 -3.26074219 194.14331055 C-3.2714739 173.45399306 -3.27564303 152.76469108 -3.26951766 132.07537121 C-3.26888064 129.86417608 -3.2682519 127.65298095 -3.26763153 125.44178581 C-3.26732298 124.35416014 -3.26701443 123.26653448 -3.26669653 122.14595046 C-3.26497818 114.52467545 -3.26786605 106.90341038 -3.27259064 99.28213692 C-3.27823187 89.97869019 -3.2766155 80.67527715 -3.26602915 71.37183423 C-3.26081553 66.63576496 -3.25864098 61.89975164 -3.26532745 57.16368294 C-3.31655395 17.59355258 -3.31655395 17.59355258 -1 1 C-0.67 0.67 -0.34 0.34 0 0 Z " fill="#19AA1E" transform="translate(3,139)"/>
<path d="M0 0 C4.7718464 0.00249662 9.54367429 -0.00658289 14.31551361 -0.01403749 C23.63399347 -0.02670641 32.95244441 -0.02858798 42.27093144 -0.02623723 C49.85594896 -0.02444496 57.44095779 -0.02622305 65.02597427 -0.03046167 C66.65314196 -0.03135445 66.65314196 -0.03135445 68.31318172 -0.03226527 C70.51783523 -0.03347719 72.72248874 -0.03469132 74.92714225 -0.03590765 C95.545643 -0.0467533 116.16412734 -0.04463495 136.782629 -0.0385228 C155.58242134 -0.03335737 174.38216182 -0.04460458 193.18194391 -0.06362102 C212.55461956 -0.08306446 231.92727075 -0.091244 251.2999562 -0.08749777 C262.14850884 -0.08559543 272.99701738 -0.08797805 283.84556198 -0.10221231 C293.08221578 -0.11421049 302.31879832 -0.11543764 311.55545326 -0.10342214 C316.25382029 -0.09759175 320.95205755 -0.09626871 325.65041542 -0.10842454 C382.78158721 -0.2458506 435.56282753 7.19887196 477.95877838 48.76048338 C523.12054549 94.42551577 523.68986733 158.24965264 523.39627838 218.34642088 C523.38534563 219.98965547 523.37396288 221.6328876 523.36112213 223.27610838 C522.72424469 223.17064696 522.08736725 223.06518553 521.43119049 222.95652831 C508.66733899 220.8529981 495.90972163 218.85532651 483.06400299 217.31590331 C479.00402529 216.81615096 475.03205556 216.24926663 471.04862213 215.31126463 C465.05073305 213.90840443 458.95966487 213.16785217 452.86112213 212.33860838 C445.06457651 211.25546109 437.28649798 210.16155259 429.54862213 208.71360838 C421.88817297 207.29984445 414.19698185 206.2942049 406.46341705 205.36570799 C402.21763367 204.8429271 398.05856073 204.26013005 393.89237213 203.28001463 C388.59953978 202.0374469 383.2542029 201.42101029 377.86112213 200.77610838 C371.70842446 200.04037187 365.71150339 199.18268875 359.67948151 197.76243651 C355.11937869 196.80585218 350.48434044 196.32895052 345.86112213 195.77610838 C339.60156686 195.02759389 333.48135318 194.2106904 327.36502838 192.65477049 C325.14411433 192.23510216 323.11544222 192.26083769 320.86112213 192.33860838 C317.62768341 192.01973986 316.54697584 191.45696603 314.18143463 189.15501463 C312.66530848 187.25311261 311.18134028 185.32528601 309.72440338 183.37767088 C302.1222465 173.40062533 292.34237848 165.71929129 282.36112213 158.27610838 C281.53096588 157.65091307 280.70080963 157.02571776 279.84549713 156.38157713 C265.72797367 146.12956605 250.51634453 138.72006427 234.36112213 132.27610838 C233.16100494 131.78239745 231.96088776 131.28868651 230.72440338 130.78001463 C208.79022679 122.28680512 185.12617413 119.86636258 161.79862213 119.96360838 C160.86981232 119.96576354 159.9410025 119.96791869 158.98404694 119.97013915 C122.34669224 120.10660434 86.60838655 128.43854309 55.45096588 148.46360838 C50.46209046 150.40320855 44.68150505 149.14602545 39.53397369 148.31395018 C38.5687252 148.16024458 38.5687252 148.16024458 37.58397675 148.00343382 C35.47236944 147.66588176 33.36209707 147.3206453 31.25174713 146.97532713 C29.76034959 146.73540667 28.26887252 146.49598009 26.77732086 146.25701964 C22.85148467 145.62674945 18.92672758 144.98999577 15.00217438 144.35179198 C11.07424902 143.71409944 7.14539736 143.08217364 3.21659088 142.44993651 C-2.06590592 141.59939079 -7.34813491 140.74722239 -12.62996674 139.89255679 C-21.64340405 138.43418944 -30.65982874 136.99599307 -39.68050385 135.5830847 C-41.66517662 135.27198604 -43.64961654 134.95943951 -45.63399506 134.64646971 C-61.94100846 132.07623196 -78.25415279 129.56481086 -94.58809662 127.17063963 C-104.5966938 125.6955344 -114.5715036 124.14944094 -124.51387787 122.27610838 C-131.95790639 120.89767813 -139.37259433 119.70837383 -146.88497162 118.76829588 C-153.65333649 117.88087239 -160.3856209 116.76035471 -167.12471771 115.67601073 C-169.74915138 115.25856828 -172.37530263 114.85378964 -175.00215912 114.45188963 C-176.3078183 114.25067503 -176.3078183 114.25067503 -177.63985443 114.04539549 C-179.31720698 113.78720598 -180.9949312 113.53141696 -182.67305756 113.27830565 C-188.41436115 112.38836674 -188.41436115 112.38836674 -190.63887787 111.27610838 C-189.46740554 105.02764536 -187.70999089 99.43181828 -185.07637787 93.65110838 C-184.72559174 92.87549559 -184.3748056 92.0998828 -184.01338959 91.30076659 C-166.25360313 52.92063594 -134.21195332 25.00694979 -94.71309662 10.38938963 C-64.20817308 -0.17000698 -31.8644017 -0.03131661 0 0 Z " fill="#FEB919" transform="translate(199.63887786865234,-0.27610838413238525)"/>
<path d="M0 0 C2.65021563 0.01073851 5.29975577 0.00003777 7.94995117 -0.01269531 C17.03900232 -0.02051392 25.66419366 0.35716252 34.58862305 2.26074219 C36.12987545 2.53779631 37.671524 2.81265875 39.21362305 3.08496094 C57.09657477 6.52344811 73.61591767 12.54513331 89.58862305 21.26074219 C90.64436523 21.82535156 91.70010742 22.38996094 92.7878418 22.97167969 C105.4419678 30.01829103 116.14804163 39.32983412 126.58862305 49.26074219 C127.2331543 49.85242188 127.87768555 50.44410156 128.54174805 51.05371094 C147.89093838 69.36310833 162.17785594 96.65988955 168.58862305 122.26074219 C168.78182129 122.97439941 168.97501953 123.68805664 169.17407227 124.42333984 C175.66386985 148.97861477 173.89221974 176.46382792 169.58862305 201.26074219 C169.36818087 202.67714653 169.14933389 204.09380041 168.93237305 205.51074219 C166.21846268 221.79420439 160.65939269 254.18997254 148.58862305 266.26074219 C146.52332441 266.50130793 144.45103403 266.68216227 142.37768555 266.83886719 C127.41935964 268.06018229 112.86115332 269.29063672 98.58862305 274.26074219 C97.86046387 274.51339844 97.13230469 274.76605469 96.38208008 275.02636719 C67.00077371 285.53947659 46.49005725 306.20134029 32.9597168 334.17871094 C24.84292993 352.42413783 21.87665272 370.69313401 19.88598633 390.38134766 C19.6281919 392.87759354 19.33826478 395.36704543 19.0378418 397.85839844 C18.35505178 403.93447015 18.20626799 410.04075659 17.9831543 416.14746094 C17.94577148 417.05109375 17.90838867 417.95472656 17.86987305 418.88574219 C17.83958008 419.70300781 17.80928711 420.52027344 17.77807617 421.36230469 C17.58862305 423.26074219 17.58862305 423.26074219 16.58862305 424.26074219 C15.01851996 424.55807626 13.43764695 424.79905815 11.85424805 425.01464844 C10.40405273 425.2128418 10.40405273 425.2128418 8.92456055 425.41503906 C7.90620117 425.54974609 6.8878418 425.68445313 5.83862305 425.82324219 C4.83573242 425.96181641 3.8328418 426.10039063 2.79956055 426.24316406 C-1.64537787 426.84152116 -5.91910598 427.34106957 -10.41137695 427.26074219 C-10.45625244 426.21958252 -10.50112793 425.17842285 -10.54736328 424.10571289 C-11.59199335 396.04104975 -11.59199335 396.04104975 -15.41137695 368.26074219 C-15.56944824 367.41914551 -15.72751953 366.57754883 -15.89038086 365.71044922 C-21.82351676 335.03221154 -36.95807874 306.06769527 -63.16186523 288.05761719 C-86.55213154 272.56054374 -113.76624377 267.47545259 -141.41137695 266.26074219 C-146.77500898 255.33870937 -150.97613828 244.13443865 -154.72387695 232.57324219 C-155.04216461 231.60498001 -155.04216461 231.60498001 -155.36688232 230.61715698 C-162.91312731 207.55691148 -165.66565722 183.81593778 -165.78637695 159.63574219 C-165.79414154 158.92952728 -165.80190613 158.22331238 -165.80990601 157.49569702 C-165.89774036 147.39298086 -164.73618373 138.11527588 -162.41137695 128.26074219 C-162.21801758 127.3812793 -162.0246582 126.50181641 -161.82543945 125.59570312 C-156.37362599 101.21625907 -144.75033 78.15176056 -128.41137695 59.26074219 C-127.95617676 58.73254883 -127.50097656 58.20435547 -127.03198242 57.66015625 C-108.91642328 36.84817818 -86.92027894 21.55617827 -61.41137695 11.26074219 C-60.50387695 10.88304687 -59.59637695 10.50535156 -58.66137695 10.11621094 C-52.75484156 7.79974159 -46.67495083 6.20301329 -40.53637695 4.63574219 C-39.73425781 4.42933105 -38.93213867 4.22291992 -38.10571289 4.01025391 C-25.35744129 0.86533961 -13.07763234 -0.06298387 0 0 Z " fill="#0073FA" transform="translate(357.411376953125,146.7392578125)"/>
<path d="M0 0 C1.23177055 47.76532466 -11.35605962 93.07520697 -44.43603516 128.41333008 C-80.62821668 165.89934404 -129.83852425 176.54149427 -180.25313407 177.47768521 C-183.8614829 177.53409087 -187.46986209 177.5808867 -191.07836914 177.62597656 C-193.05256624 177.65444833 -195.02676331 177.68292308 -197.00095792 177.71156676 C-230.47853413 178.1882416 -263.95961455 178.08776433 -297.43947101 177.99825954 C-302.82496583 177.98394277 -308.21046412 177.97155705 -313.59596443 177.9595108 C-328.63367857 177.92562079 -343.67138548 177.89001886 -358.70907497 177.84641647 C-359.65710029 177.84366843 -360.60512561 177.84092038 -361.58187896 177.83808906 C-363.50160412 177.8325159 -365.42132928 177.82694112 -367.34105443 177.82136473 C-368.76950178 177.81721839 -368.76950178 177.81721839 -370.22680664 177.81298828 C-371.65707136 177.8088345 -371.65707136 177.8088345 -373.11623032 177.80459681 C-388.65376858 177.75983411 -404.19130174 177.72888805 -419.72888302 177.70378849 C-435.84271159 177.67757355 -451.95648375 177.6402776 -468.07026154 177.59196877 C-477.05428911 177.56527287 -486.03827387 177.54296908 -495.02233696 177.53295135 C-502.64154859 177.52439515 -510.26065205 177.50547111 -517.87980419 177.47384754 C-521.74616284 177.45808554 -525.61238317 177.44661879 -529.47877693 177.44845009 C-576.07280033 177.46051423 -624.74510054 173.12501529 -662 142 C-663.07339143 141.13829135 -664.14764669 140.27765788 -665.22265625 139.41796875 C-676.10621093 130.59480004 -685.35135535 120.79927434 -693 109 C-689.30014359 106.78199823 -685.37817601 106.19093583 -681.1875 105.5 C-680.43339844 105.37109375 -679.67929687 105.2421875 -678.90234375 105.109375 C-672.89062037 104.10069658 -666.85935135 103.29991754 -660.8125 102.53125 C-656.68576438 101.95621307 -652.59825722 101.2471552 -648.5 100.5 C-641.95663686 99.30707639 -635.41198255 98.37016727 -628.8125 97.53125 C-624.68576438 96.95621307 -620.59825722 96.2471552 -616.5 95.5 C-609.95663686 94.30707639 -603.41198255 93.37016727 -596.8125 92.53125 C-592.68576438 91.95621307 -588.59825722 91.2471552 -584.5 90.5 C-577.95663686 89.30707639 -571.41198255 88.37016727 -564.8125 87.53125 C-560.68576438 86.95621307 -556.59825722 86.2471552 -552.5 85.5 C-545.95663686 84.30707639 -539.41198255 83.37016727 -532.8125 82.53125 C-528.68576438 81.95621307 -524.59825722 81.2471552 -520.5 80.5 C-513.95663686 79.30707639 -507.41198255 78.37016727 -500.8125 77.53125 C-496.68576438 76.95621307 -492.59825722 76.2471552 -488.5 75.5 C-481.95663686 74.30707639 -475.41198255 73.37016727 -468.8125 72.53125 C-464.68576438 71.95621307 -460.59825722 71.2471552 -456.5 70.5 C-449.95663686 69.30707639 -443.41198255 68.37016727 -436.8125 67.53125 C-432.68576438 66.95621307 -428.59825722 66.2471552 -424.5 65.5 C-417.95663686 64.30707639 -411.41198255 63.37016727 -404.8125 62.53125 C-400.68576438 61.95621307 -396.59825722 61.2471552 -392.5 60.5 C-385.95663686 59.30707639 -379.41198255 58.37016727 -372.8125 57.53125 C-368.68576438 56.95621307 -364.59825722 56.2471552 -360.5 55.5 C-353.95663686 54.30707639 -347.41198255 53.37016727 -340.8125 52.53125 C-336.68576438 51.95621307 -332.59825722 51.2471552 -328.5 50.5 C-321.95663686 49.30707639 -315.41198255 48.37016727 -308.8125 47.53125 C-304.68576438 46.95621307 -300.59825722 46.2471552 -296.5 45.5 C-289.95663686 44.30707639 -283.41198255 43.37016727 -276.8125 42.53125 C-272.68576438 41.95621307 -268.59825722 41.2471552 -264.5 40.5 C-257.95663686 39.30707639 -251.41198255 38.37016727 -244.8125 37.53125 C-240.68576438 36.95621307 -236.59825722 36.2471552 -232.5 35.5 C-225.95663686 34.30707639 -219.41198255 33.37016727 -212.8125 32.53125 C-208.68576438 31.95621307 -204.59825722 31.2471552 -200.5 30.5 C-193.95663686 29.30707639 -187.41198255 28.37016727 -180.8125 27.53125 C-176.68576438 26.95621307 -172.59825722 26.2471552 -168.5 25.5 C-161.95663686 24.30707639 -155.41198255 23.37016727 -148.8125 22.53125 C-144.68576438 21.95621307 -140.59825722 21.2471552 -136.5 20.5 C-129.95663686 19.30707639 -123.41198255 18.37016727 -116.8125 17.53125 C-112.68576438 16.95621307 -108.59825722 16.2471552 -104.5 15.5 C-97.95663686 14.30707639 -91.41198255 13.37016727 -84.8125 12.53125 C-80.68576438 11.95621307 -76.59825722 11.2471552 -72.5 10.5 C-65.95663686 9.30707639 -59.41198255 8.37016727 -52.8125 7.53125 C-48.6857569 6.95621203 -44.59828384 6.24703481 -40.5 5.5 C-33.88325852 4.2955252 -27.26334279 3.32019775 -20.58984375 2.47265625 C-15.94703468 1.86136148 -11.32826968 1.12286171 -6.70703125 0.3671875 C-4 0 -4 0 0 0 Z " fill="#82D714" transform="translate(722,545)"/>
<path d="M0 0 C5.49779204 -0.16083966 10.58749486 0.44695258 16 1.375 C17.69506215 1.65516474 19.39037869 1.93379441 21.0859375 2.2109375 C21.91963867 2.34725586 22.75333984 2.48357422 23.61230469 2.62402344 C26.94313729 3.14851037 30.27964314 3.5773532 33.625 4 C38.57534727 4.64070728 43.47596764 5.41501908 48.38671875 6.30859375 C58.86096698 8.18653478 69.36743207 9.85954899 79.87573242 11.53442383 C83.19285454 12.06335381 86.5095319 12.59500917 89.82617188 13.12695312 C99.25937577 14.63621981 108.69082666 16.12275209 118.15258789 17.44311523 C126.84261637 18.7009333 135.51279817 20.09402046 144.18652344 21.45898438 C147.62416616 21.9998688 151.06206372 22.53910991 154.5 23.078125 C156.72136937 23.42698653 158.94272404 23.77594169 161.1640625 24.125 C162.17377106 24.28339355 163.18347961 24.44178711 164.2237854 24.60498047 C171.1567126 25.69693566 178.07643702 26.84607284 185 28 C185 115.45 185 202.9 185 293 C168.14859363 296.37028127 168.14859363 296.37028127 161.50390625 297.24609375 C160.79092377 297.34198288 160.07794128 297.43787201 159.34335327 297.53666687 C157.84714295 297.73783758 156.35068059 297.93714256 154.85397339 298.13458252 C140.6967978 300.0060666 126.60779517 302.13987848 112.53466797 304.56787109 C106.32525335 305.62649794 100.09873568 306.58072368 93.875 307.55078125 C90.46829749 308.08307852 87.06228992 308.61972948 83.65625 309.15625 C68.46486187 311.54603477 53.26658518 313.87519048 38.05078125 316.10546875 C36.03382693 316.40346151 34.01690032 316.70164196 32 317 C30.34750244 317.24097412 30.34750244 317.24097412 28.66162109 317.48681641 C23.91229826 318.19381083 19.19907827 318.90299806 14.5234375 320.00390625 C8.62140513 321.38068895 2.62460851 322.11607654 -3.375 322.9375 C-5.89858158 323.29063861 -8.4220194 323.64480598 -10.9453125 324 C-12.77304199 324.25716797 -12.77304199 324.25716797 -14.63769531 324.51953125 C-18.84815404 325.12120005 -23.05043853 325.76440122 -27.25 326.4375 C-27.99362793 326.55649658 -28.73725586 326.67549316 -29.50341797 326.7980957 C-31.11235119 327.0560252 -32.72123579 327.31425809 -34.33007812 327.57275391 C-55.55107873 330.96857972 -76.79792399 334.2010061 -98.04299927 337.44191742 C-100.0558582 337.74898677 -102.06870115 338.05616077 -104.08154297 338.36334229 C-107.8993455 338.94580402 -111.71723183 339.52771278 -115.53515625 340.109375 C-116.68810684 340.28522125 -117.84105743 340.4610675 -119.02894592 340.64224243 C-124.34947854 341.45201129 -129.67040174 342.25208688 -135 343 C-133.49410768 305.21711324 -130.96143033 267.42476443 -101.75 239.8125 C-86.43714137 226.87987847 -69.51429943 221.54238892 -50 219 C-48.205625 218.73316406 -48.205625 218.73316406 -46.375 218.4609375 C-40.11680459 217.68945307 -33.79642095 217.63266345 -27.5 217.4375 C-26.200625 217.39431641 -24.90125 217.35113281 -23.5625 217.30664062 C-20.37509155 217.2011749 -17.18761302 217.09905552 -14 217 C-1.04712316 189.96972003 9.0313271 163.33472193 15 134 C15.18530273 133.11876465 15.37060547 132.2375293 15.56152344 131.32958984 C18.50157169 117.32506297 19.18666742 103.57746005 19.18530273 89.31103516 C19.18748423 86.76838293 19.20569359 84.22616945 19.22460938 81.68359375 C19.27306891 67.93851666 18.29953606 54.5467739 14.8125 41.1875 C14.60109375 40.36056641 14.3896875 39.53363281 14.171875 38.68164062 C10.64658007 25.39631488 5.45614033 12.59689542 0 0 Z " fill="#19AA1E" transform="translate(538,223)"/>
<path d="M0 0 C99 0 198 0 300 0 C300 30.03 300 60.06 300 91 C234.33 91 168.66 91 101 91 C101 208.15 101 325.3 101 446 C67.67 446 34.34 446 0 446 C0 298.82 0 151.64 0 0 Z " fill="#252525" transform="translate(1317,138)"/>
</svg>
